<mxfile host="app.diagrams.net" modified="2022-06-17T13:58:01.580Z" agent="5.0 (Windows NT 10.0; Win64; x64) AppleWebKit/537.36 (KHTML, like Gecko) Chrome/102.0.0.0 Safari/537.36" etag="RDgSLRtOI-gGHdv5cBi2" version="20.0.1" type="github">
  <diagram id="BBVn9Ozy_GyZHSGKIwdL" name="Page-1">
    <mxGraphModel dx="1865" dy="547" grid="1" gridSize="10" guides="1" tooltips="1" connect="1" arrows="1" fold="1" page="1" pageScale="1" pageWidth="827" pageHeight="1169" math="0" shadow="0">
      <root>
        <mxCell id="0" />
        <mxCell id="1" parent="0" />
        <mxCell id="jWT5g_k1tAhaqWM9EBht-1" value="Front End Application" style="rounded=1;whiteSpace=wrap;html=1;" parent="1" vertex="1">
          <mxGeometry x="310" y="110" width="120" height="60" as="geometry" />
        </mxCell>
        <mxCell id="jWT5g_k1tAhaqWM9EBht-2" value="Web Service" style="rounded=1;whiteSpace=wrap;html=1;" parent="1" vertex="1">
          <mxGeometry x="310" y="200" width="120" height="60" as="geometry" />
        </mxCell>
        <mxCell id="jWT5g_k1tAhaqWM9EBht-4" value="" style="edgeStyle=orthogonalEdgeStyle;rounded=0;orthogonalLoop=1;jettySize=auto;html=1;" parent="1" source="jWT5g_k1tAhaqWM9EBht-3" target="jWT5g_k1tAhaqWM9EBht-1" edge="1">
          <mxGeometry relative="1" as="geometry" />
        </mxCell>
        <mxCell id="jWT5g_k1tAhaqWM9EBht-3" value="Actor" style="shape=umlActor;verticalLabelPosition=bottom;verticalAlign=top;html=1;outlineConnect=0;" parent="1" vertex="1">
          <mxGeometry x="230" y="40" width="30" height="60" as="geometry" />
        </mxCell>
        <mxCell id="jWT5g_k1tAhaqWM9EBht-8" value="Cloud" style="ellipse;shape=cloud;whiteSpace=wrap;html=1;" parent="1" vertex="1">
          <mxGeometry x="310" y="320" width="120" height="80" as="geometry" />
        </mxCell>
        <mxCell id="jWT5g_k1tAhaqWM9EBht-9" value="SQL" style="shape=cylinder3;whiteSpace=wrap;html=1;boundedLbl=1;backgroundOutline=1;size=15;" parent="1" vertex="1">
          <mxGeometry x="100" y="290" width="60" height="80" as="geometry" />
        </mxCell>
        <mxCell id="jWT5g_k1tAhaqWM9EBht-10" value="MongoDB" style="shape=cylinder3;whiteSpace=wrap;html=1;boundedLbl=1;backgroundOutline=1;size=15;" parent="1" vertex="1">
          <mxGeometry x="100" y="380" width="60" height="80" as="geometry" />
        </mxCell>
        <mxCell id="jWT5g_k1tAhaqWM9EBht-11" value="Box" style="shape=cube;whiteSpace=wrap;html=1;boundedLbl=1;backgroundOutline=1;darkOpacity=0.05;darkOpacity2=0.1;" parent="1" vertex="1">
          <mxGeometry x="320" y="470" width="120" height="80" as="geometry" />
        </mxCell>
        <mxCell id="jWT5g_k1tAhaqWM9EBht-12" value="" style="endArrow=none;html=1;rounded=0;entryX=0.5;entryY=1;entryDx=0;entryDy=0;exitX=0.5;exitY=0;exitDx=0;exitDy=0;" parent="1" source="jWT5g_k1tAhaqWM9EBht-2" target="jWT5g_k1tAhaqWM9EBht-1" edge="1">
          <mxGeometry width="50" height="50" relative="1" as="geometry">
            <mxPoint x="320" y="260" as="sourcePoint" />
            <mxPoint x="370" y="210" as="targetPoint" />
          </mxGeometry>
        </mxCell>
        <mxCell id="jWT5g_k1tAhaqWM9EBht-13" value="" style="endArrow=classic;startArrow=classic;html=1;rounded=0;entryX=0.62;entryY=0.997;entryDx=0;entryDy=0;exitX=0.625;exitY=0.2;exitDx=0;exitDy=0;exitPerimeter=0;entryPerimeter=0;" parent="1" source="jWT5g_k1tAhaqWM9EBht-8" target="jWT5g_k1tAhaqWM9EBht-2" edge="1">
          <mxGeometry width="50" height="50" relative="1" as="geometry">
            <mxPoint x="320" y="260" as="sourcePoint" />
            <mxPoint x="370" y="210" as="targetPoint" />
          </mxGeometry>
        </mxCell>
        <mxCell id="jWT5g_k1tAhaqWM9EBht-14" value="" style="endArrow=classic;startArrow=classic;html=1;rounded=0;entryX=0.55;entryY=0.95;entryDx=0;entryDy=0;entryPerimeter=0;exitX=0.49;exitY=-0.017;exitDx=0;exitDy=0;exitPerimeter=0;" parent="1" source="jWT5g_k1tAhaqWM9EBht-11" target="jWT5g_k1tAhaqWM9EBht-8" edge="1">
          <mxGeometry width="50" height="50" relative="1" as="geometry">
            <mxPoint x="320" y="410" as="sourcePoint" />
            <mxPoint x="370" y="360" as="targetPoint" />
          </mxGeometry>
        </mxCell>
        <mxCell id="jWT5g_k1tAhaqWM9EBht-15" value="" style="endArrow=classic;html=1;rounded=0;exitX=1;exitY=0.5;exitDx=0;exitDy=0;exitPerimeter=0;entryX=0.25;entryY=0.25;entryDx=0;entryDy=0;entryPerimeter=0;startArrow=classic;startFill=1;endFill=1;" parent="1" source="jWT5g_k1tAhaqWM9EBht-9" target="jWT5g_k1tAhaqWM9EBht-8" edge="1">
          <mxGeometry width="50" height="50" relative="1" as="geometry">
            <mxPoint x="320" y="410" as="sourcePoint" />
            <mxPoint x="370" y="360" as="targetPoint" />
          </mxGeometry>
        </mxCell>
        <mxCell id="jWT5g_k1tAhaqWM9EBht-16" value="" style="endArrow=classic;html=1;rounded=0;exitX=1;exitY=0.5;exitDx=0;exitDy=0;exitPerimeter=0;entryX=0.13;entryY=0.77;entryDx=0;entryDy=0;entryPerimeter=0;startArrow=classic;startFill=1;endFill=1;" parent="1" source="jWT5g_k1tAhaqWM9EBht-10" target="jWT5g_k1tAhaqWM9EBht-8" edge="1">
          <mxGeometry width="50" height="50" relative="1" as="geometry">
            <mxPoint x="320" y="410" as="sourcePoint" />
            <mxPoint x="370" y="360" as="targetPoint" />
          </mxGeometry>
        </mxCell>
        <mxCell id="LM3yIXjnHnnbTc_fIncE-1" value="Automation already done:" style="text;html=1;align=center;verticalAlign=middle;resizable=0;points=[];autosize=1;strokeColor=none;fillColor=none;" vertex="1" parent="1">
          <mxGeometry x="160" y="270" width="150" height="20" as="geometry" />
        </mxCell>
        <mxCell id="LM3yIXjnHnnbTc_fIncE-2" value="30-50%" style="text;html=1;align=center;verticalAlign=middle;resizable=0;points=[];autosize=1;strokeColor=none;fillColor=none;" vertex="1" parent="1">
          <mxGeometry x="215" y="310" width="60" height="20" as="geometry" />
        </mxCell>
        <mxCell id="LM3yIXjnHnnbTc_fIncE-3" value="0%" style="text;html=1;align=center;verticalAlign=middle;resizable=0;points=[];autosize=1;strokeColor=none;fillColor=none;" vertex="1" parent="1">
          <mxGeometry x="230" y="410" width="30" height="20" as="geometry" />
        </mxCell>
        <mxCell id="LM3yIXjnHnnbTc_fIncE-4" value="10%" style="text;html=1;strokeColor=none;fillColor=none;align=center;verticalAlign=middle;whiteSpace=wrap;rounded=0;" vertex="1" parent="1">
          <mxGeometry x="455" y="500" width="60" height="30" as="geometry" />
        </mxCell>
        <mxCell id="LM3yIXjnHnnbTc_fIncE-5" value="0%" style="text;html=1;strokeColor=none;fillColor=none;align=center;verticalAlign=middle;whiteSpace=wrap;rounded=0;" vertex="1" parent="1">
          <mxGeometry x="450" y="130" width="60" height="30" as="geometry" />
        </mxCell>
        <mxCell id="LM3yIXjnHnnbTc_fIncE-6" value="30-50%" style="text;html=1;strokeColor=none;fillColor=none;align=center;verticalAlign=middle;whiteSpace=wrap;rounded=0;" vertex="1" parent="1">
          <mxGeometry x="450" y="210" width="60" height="30" as="geometry" />
        </mxCell>
        <mxCell id="LM3yIXjnHnnbTc_fIncE-7" value="&lt;span style=&quot;color: rgba(0, 0, 0, 0); font-family: monospace; font-size: 0px; text-align: start;&quot;&gt;%3CmxGraphModel%3E%3Croot%3E%3CmxCell%20id%3D%220%22%2F%3E%3CmxCell%20id%3D%221%22%20parent%3D%220%22%2F%3E%3CmxCell%20id%3D%222%22%20value%3D%22Automation%20already%20done%3A%22%20style%3D%22text%3Bhtml%3D1%3Balign%3Dcenter%3BverticalAlign%3Dmiddle%3Bresizable%3D0%3Bpoints%3D%5B%5D%3Bautosize%3D1%3BstrokeColor%3Dnone%3BfillColor%3Dnone%3B%22%20vertex%3D%221%22%20parent%3D%221%22%3E%3CmxGeometry%20x%3D%22160%22%20y%3D%22270%22%20width%3D%22150%22%20height%3D%2220%22%20as%3D%22geometry%22%2F%3E%3C%2FmxCell%3E%3C%2Froot%3E%3C%2FmxGraphModel%3E&lt;/span&gt;&lt;span style=&quot;color: rgba(0, 0, 0, 0); font-family: monospace; font-size: 0px; text-align: start;&quot;&gt;%3CmxGraphModel%3E%3Croot%3E%3CmxCell%20id%3D%220%22%2F%3E%3CmxCell%20id%3D%221%22%20parent%3D%220%22%2F%3E%3CmxCell%20id%3D%222%22%20value%3D%22Automation%20already%20done%3A%22%20style%3D%22text%3Bhtml%3D1%3Balign%3Dcenter%3BverticalAlign%3Dmiddle%3Bresizable%3D0%3Bpoints%3D%5B%5D%3Bautosize%3D1%3BstrokeColor%3Dnone%3BfillColor%3Dnone%3B%22%20vertex%3D%221%22%20parent%3D%221%22%3E%3CmxGeometry%20x%3D%22160%22%20y%3D%22270%22%20width%3D%22150%22%20height%3D%2220%22%20as%3D%22geometry%22%2F%3E%3C%2FmxCell%3E%3C%2Froot%3E%3C%2FmxGraphModel%3E&lt;/span&gt;" style="text;html=1;align=center;verticalAlign=middle;resizable=0;points=[];autosize=1;strokeColor=none;fillColor=none;" vertex="1" parent="1">
          <mxGeometry x="475" y="90" width="20" height="20" as="geometry" />
        </mxCell>
        <mxCell id="LM3yIXjnHnnbTc_fIncE-8" value="" style="rounded=0;whiteSpace=wrap;html=1;" vertex="1" parent="1">
          <mxGeometry x="-200" y="280" width="190" height="190" as="geometry" />
        </mxCell>
        <mxCell id="LM3yIXjnHnnbTc_fIncE-9" value="QA&amp;nbsp; tasks:" style="text;html=1;strokeColor=none;fillColor=none;align=center;verticalAlign=middle;whiteSpace=wrap;rounded=0;" vertex="1" parent="1">
          <mxGeometry x="-140" y="280" width="60" height="30" as="geometry" />
        </mxCell>
        <mxCell id="LM3yIXjnHnnbTc_fIncE-12" value="&lt;h1&gt;QA Tasks:&lt;/h1&gt;&lt;p&gt;The idea is to ensure the consistency of transiting data between the following points&lt;/p&gt;" style="text;html=1;strokeColor=none;fillColor=none;spacing=5;spacingTop=-20;whiteSpace=wrap;overflow=hidden;rounded=0;" vertex="1" parent="1">
          <mxGeometry x="-200" y="350" width="190" height="120" as="geometry" />
        </mxCell>
        <mxCell id="LM3yIXjnHnnbTc_fIncE-19" value="" style="shape=flexArrow;endArrow=none;startArrow=none;html=1;rounded=0;startFill=0;endFill=0;entryX=0;entryY=0.5;entryDx=0;entryDy=0;exitX=0.997;exitY=0.062;exitDx=0;exitDy=0;exitPerimeter=0;" edge="1" parent="1" source="LM3yIXjnHnnbTc_fIncE-8" target="jWT5g_k1tAhaqWM9EBht-2">
          <mxGeometry width="100" height="100" relative="1" as="geometry">
            <mxPoint x="40" y="380" as="sourcePoint" />
            <mxPoint x="140" y="280" as="targetPoint" />
          </mxGeometry>
        </mxCell>
        <mxCell id="LM3yIXjnHnnbTc_fIncE-20" value="" style="shape=flexArrow;endArrow=none;startArrow=none;html=1;rounded=0;startFill=0;endFill=0;entryX=0;entryY=0.5;entryDx=0;entryDy=0;entryPerimeter=0;" edge="1" parent="1" target="jWT5g_k1tAhaqWM9EBht-9">
          <mxGeometry width="100" height="100" relative="1" as="geometry">
            <mxPoint x="-10" y="330" as="sourcePoint" />
            <mxPoint x="320" y="280" as="targetPoint" />
          </mxGeometry>
        </mxCell>
        <mxCell id="LM3yIXjnHnnbTc_fIncE-21" value="" style="shape=flexArrow;endArrow=none;startArrow=none;html=1;rounded=0;startFill=0;endFill=0;entryX=0;entryY=0.5;entryDx=0;entryDy=0;entryPerimeter=0;" edge="1" parent="1" target="jWT5g_k1tAhaqWM9EBht-10">
          <mxGeometry width="100" height="100" relative="1" as="geometry">
            <mxPoint x="-10" y="420" as="sourcePoint" />
            <mxPoint x="50" y="409.5" as="targetPoint" />
          </mxGeometry>
        </mxCell>
        <mxCell id="LM3yIXjnHnnbTc_fIncE-22" value="" style="shape=flexArrow;endArrow=none;startArrow=none;html=1;rounded=0;startFill=0;endFill=0;entryX=0;entryY=0.5;entryDx=0;entryDy=0;exitX=1.005;exitY=0.888;exitDx=0;exitDy=0;exitPerimeter=0;" edge="1" parent="1" source="LM3yIXjnHnnbTc_fIncE-12">
          <mxGeometry width="100" height="100" relative="1" as="geometry">
            <mxPoint x="6.361577931102147e-14" y="571.78" as="sourcePoint" />
            <mxPoint x="320.57" y="510" as="targetPoint" />
          </mxGeometry>
        </mxCell>
        <mxCell id="LM3yIXjnHnnbTc_fIncE-23" value="Automation already done:" style="text;html=1;align=center;verticalAlign=middle;resizable=0;points=[];autosize=1;strokeColor=none;fillColor=none;" vertex="1" parent="1">
          <mxGeometry x="405" y="80" width="150" height="20" as="geometry" />
        </mxCell>
      </root>
    </mxGraphModel>
  </diagram>
</mxfile>
